<mxfile host="app.diagrams.net" modified="2023-05-14T12:13:21.293Z" agent="Mozilla/5.0 (Windows NT 10.0; Win64; x64) AppleWebKit/537.36 (KHTML, like Gecko) Chrome/113.0.0.0 Safari/537.36" etag="uT564Jw1WX4kA6opPBtc" version="21.3.0" type="device">
  <diagram name="Страница 1" id="pcfaHg5Gb8dfSj1Jz3-g">
    <mxGraphModel dx="2074" dy="1148" grid="1" gridSize="10" guides="1" tooltips="1" connect="1" arrows="1" fold="1" page="1" pageScale="1" pageWidth="827" pageHeight="1169" math="0" shadow="0">
      <root>
        <mxCell id="0" />
        <mxCell id="1" parent="0" />
        <mxCell id="xkYylE5DT08cLDUG56dl-3" style="edgeStyle=orthogonalEdgeStyle;rounded=0;orthogonalLoop=1;jettySize=auto;html=1;entryX=0.5;entryY=0;entryDx=0;entryDy=0;" edge="1" parent="1" source="xkYylE5DT08cLDUG56dl-1" target="xkYylE5DT08cLDUG56dl-2">
          <mxGeometry relative="1" as="geometry" />
        </mxCell>
        <mxCell id="xkYylE5DT08cLDUG56dl-1" value="Начало&lt;br&gt;main" style="ellipse;whiteSpace=wrap;html=1;" vertex="1" parent="1">
          <mxGeometry x="354" y="10" width="120" height="80" as="geometry" />
        </mxCell>
        <mxCell id="xkYylE5DT08cLDUG56dl-5" value="TRUE" style="edgeStyle=orthogonalEdgeStyle;rounded=0;orthogonalLoop=1;jettySize=auto;html=1;" edge="1" parent="1" source="xkYylE5DT08cLDUG56dl-2" target="xkYylE5DT08cLDUG56dl-4">
          <mxGeometry relative="1" as="geometry" />
        </mxCell>
        <mxCell id="xkYylE5DT08cLDUG56dl-60" style="edgeStyle=orthogonalEdgeStyle;rounded=0;orthogonalLoop=1;jettySize=auto;html=1;entryX=0;entryY=0.5;entryDx=0;entryDy=0;" edge="1" parent="1" source="xkYylE5DT08cLDUG56dl-2" target="xkYylE5DT08cLDUG56dl-59">
          <mxGeometry relative="1" as="geometry" />
        </mxCell>
        <mxCell id="xkYylE5DT08cLDUG56dl-2" value="isActive" style="rhombus;whiteSpace=wrap;html=1;" vertex="1" parent="1">
          <mxGeometry x="374" y="110" width="80" height="80" as="geometry" />
        </mxCell>
        <mxCell id="xkYylE5DT08cLDUG56dl-7" style="edgeStyle=orthogonalEdgeStyle;rounded=0;orthogonalLoop=1;jettySize=auto;html=1;" edge="1" parent="1" source="xkYylE5DT08cLDUG56dl-4" target="xkYylE5DT08cLDUG56dl-6">
          <mxGeometry relative="1" as="geometry" />
        </mxCell>
        <mxCell id="xkYylE5DT08cLDUG56dl-4" value="choice" style="shape=parallelogram;perimeter=parallelogramPerimeter;whiteSpace=wrap;html=1;fixedSize=1;" vertex="1" parent="1">
          <mxGeometry x="180" y="120" width="120" height="60" as="geometry" />
        </mxCell>
        <mxCell id="xkYylE5DT08cLDUG56dl-11" value="2" style="edgeStyle=orthogonalEdgeStyle;rounded=0;orthogonalLoop=1;jettySize=auto;html=1;entryX=0;entryY=0.5;entryDx=0;entryDy=0;" edge="1" parent="1" source="xkYylE5DT08cLDUG56dl-6" target="xkYylE5DT08cLDUG56dl-10">
          <mxGeometry x="0.5625" relative="1" as="geometry">
            <mxPoint as="offset" />
          </mxGeometry>
        </mxCell>
        <mxCell id="xkYylE5DT08cLDUG56dl-13" value="3" style="edgeStyle=orthogonalEdgeStyle;rounded=0;orthogonalLoop=1;jettySize=auto;html=1;entryX=0;entryY=0.5;entryDx=0;entryDy=0;" edge="1" parent="1" source="xkYylE5DT08cLDUG56dl-6" target="xkYylE5DT08cLDUG56dl-12">
          <mxGeometry x="0.7021" relative="1" as="geometry">
            <mxPoint as="offset" />
          </mxGeometry>
        </mxCell>
        <mxCell id="xkYylE5DT08cLDUG56dl-15" value="4" style="edgeStyle=orthogonalEdgeStyle;rounded=0;orthogonalLoop=1;jettySize=auto;html=1;entryX=0;entryY=0.5;entryDx=0;entryDy=0;" edge="1" parent="1" source="xkYylE5DT08cLDUG56dl-6" target="xkYylE5DT08cLDUG56dl-14">
          <mxGeometry x="0.7742" relative="1" as="geometry">
            <mxPoint as="offset" />
          </mxGeometry>
        </mxCell>
        <mxCell id="xkYylE5DT08cLDUG56dl-21" value="1" style="edgeStyle=orthogonalEdgeStyle;rounded=0;orthogonalLoop=1;jettySize=auto;html=1;entryX=0;entryY=0.5;entryDx=0;entryDy=0;" edge="1" parent="1" source="xkYylE5DT08cLDUG56dl-6" target="xkYylE5DT08cLDUG56dl-8">
          <mxGeometry relative="1" as="geometry">
            <Array as="points">
              <mxPoint x="240" y="290" />
            </Array>
          </mxGeometry>
        </mxCell>
        <mxCell id="xkYylE5DT08cLDUG56dl-22" value="5" style="edgeStyle=orthogonalEdgeStyle;rounded=0;orthogonalLoop=1;jettySize=auto;html=1;entryX=0;entryY=0.5;entryDx=0;entryDy=0;" edge="1" parent="1" source="xkYylE5DT08cLDUG56dl-6" target="xkYylE5DT08cLDUG56dl-16">
          <mxGeometry x="0.547" relative="1" as="geometry">
            <Array as="points">
              <mxPoint x="240" y="410" />
            </Array>
            <mxPoint as="offset" />
          </mxGeometry>
        </mxCell>
        <mxCell id="xkYylE5DT08cLDUG56dl-31" value="6" style="edgeStyle=orthogonalEdgeStyle;rounded=0;orthogonalLoop=1;jettySize=auto;html=1;entryX=0;entryY=0.5;entryDx=0;entryDy=0;" edge="1" parent="1" source="xkYylE5DT08cLDUG56dl-6" target="xkYylE5DT08cLDUG56dl-24">
          <mxGeometry x="0.68" relative="1" as="geometry">
            <Array as="points">
              <mxPoint x="240" y="480" />
            </Array>
            <mxPoint as="offset" />
          </mxGeometry>
        </mxCell>
        <mxCell id="xkYylE5DT08cLDUG56dl-33" value="7" style="edgeStyle=orthogonalEdgeStyle;rounded=0;orthogonalLoop=1;jettySize=auto;html=1;entryX=0;entryY=0.5;entryDx=0;entryDy=0;" edge="1" parent="1" source="xkYylE5DT08cLDUG56dl-6" target="xkYylE5DT08cLDUG56dl-32">
          <mxGeometry x="0.7576" relative="1" as="geometry">
            <Array as="points">
              <mxPoint x="240" y="560" />
            </Array>
            <mxPoint as="offset" />
          </mxGeometry>
        </mxCell>
        <mxCell id="xkYylE5DT08cLDUG56dl-40" value="8" style="edgeStyle=orthogonalEdgeStyle;rounded=0;orthogonalLoop=1;jettySize=auto;html=1;entryX=0;entryY=0.5;entryDx=0;entryDy=0;" edge="1" parent="1" source="xkYylE5DT08cLDUG56dl-6" target="xkYylE5DT08cLDUG56dl-39">
          <mxGeometry x="0.9455" relative="1" as="geometry">
            <mxPoint as="offset" />
          </mxGeometry>
        </mxCell>
        <mxCell id="xkYylE5DT08cLDUG56dl-42" value="9" style="edgeStyle=orthogonalEdgeStyle;rounded=0;orthogonalLoop=1;jettySize=auto;html=1;entryX=0;entryY=0.5;entryDx=0;entryDy=0;" edge="1" parent="1" source="xkYylE5DT08cLDUG56dl-6" target="xkYylE5DT08cLDUG56dl-41">
          <mxGeometry x="0.9495" relative="1" as="geometry">
            <mxPoint as="offset" />
          </mxGeometry>
        </mxCell>
        <mxCell id="xkYylE5DT08cLDUG56dl-47" value="10" style="edgeStyle=orthogonalEdgeStyle;rounded=0;orthogonalLoop=1;jettySize=auto;html=1;entryX=0;entryY=0.5;entryDx=0;entryDy=0;" edge="1" parent="1" source="xkYylE5DT08cLDUG56dl-6" target="xkYylE5DT08cLDUG56dl-45">
          <mxGeometry x="0.9545" relative="1" as="geometry">
            <mxPoint as="offset" />
          </mxGeometry>
        </mxCell>
        <mxCell id="xkYylE5DT08cLDUG56dl-6" value="choice" style="rhombus;whiteSpace=wrap;html=1;" vertex="1" parent="1">
          <mxGeometry x="200" y="200" width="80" height="80" as="geometry" />
        </mxCell>
        <mxCell id="xkYylE5DT08cLDUG56dl-49" style="edgeStyle=orthogonalEdgeStyle;rounded=0;orthogonalLoop=1;jettySize=auto;html=1;" edge="1" parent="1" source="xkYylE5DT08cLDUG56dl-8">
          <mxGeometry relative="1" as="geometry">
            <mxPoint x="540" y="290" as="targetPoint" />
          </mxGeometry>
        </mxCell>
        <mxCell id="xkYylE5DT08cLDUG56dl-8" value="&lt;div style=&quot;font-size: 14px; line-height: 19px;&quot;&gt;&lt;span style=&quot;background-color: rgb(255, 255, 255);&quot;&gt;Node = addTrain(Node)&lt;/span&gt;&lt;/div&gt;" style="rounded=0;whiteSpace=wrap;html=1;" vertex="1" parent="1">
          <mxGeometry x="264" y="280" width="150" height="20" as="geometry" />
        </mxCell>
        <mxCell id="xkYylE5DT08cLDUG56dl-50" style="edgeStyle=orthogonalEdgeStyle;rounded=0;orthogonalLoop=1;jettySize=auto;html=1;" edge="1" parent="1" source="xkYylE5DT08cLDUG56dl-10">
          <mxGeometry relative="1" as="geometry">
            <mxPoint x="540" y="320" as="targetPoint" />
          </mxGeometry>
        </mxCell>
        <mxCell id="xkYylE5DT08cLDUG56dl-10" value="&lt;div style=&quot;font-size: 14px; line-height: 19px;&quot;&gt;&lt;span style=&quot;background-color: rgb(255, 255, 255);&quot;&gt;printTree(Node, 0)&lt;/span&gt;&lt;/div&gt;" style="rounded=0;whiteSpace=wrap;html=1;" vertex="1" parent="1">
          <mxGeometry x="264" y="310" width="120" height="20" as="geometry" />
        </mxCell>
        <mxCell id="xkYylE5DT08cLDUG56dl-51" style="edgeStyle=orthogonalEdgeStyle;rounded=0;orthogonalLoop=1;jettySize=auto;html=1;" edge="1" parent="1" source="xkYylE5DT08cLDUG56dl-12">
          <mxGeometry relative="1" as="geometry">
            <mxPoint x="540" y="350" as="targetPoint" />
          </mxGeometry>
        </mxCell>
        <mxCell id="xkYylE5DT08cLDUG56dl-12" value="&lt;div style=&quot;font-size: 14px; line-height: 19px;&quot;&gt;&lt;span style=&quot;background-color: rgb(255, 255, 255);&quot;&gt;printAllTrains(Node)&lt;/span&gt;&lt;/div&gt;" style="rounded=0;whiteSpace=wrap;html=1;" vertex="1" parent="1">
          <mxGeometry x="264" y="340" width="140" height="20" as="geometry" />
        </mxCell>
        <mxCell id="xkYylE5DT08cLDUG56dl-52" style="edgeStyle=orthogonalEdgeStyle;rounded=0;orthogonalLoop=1;jettySize=auto;html=1;" edge="1" parent="1" source="xkYylE5DT08cLDUG56dl-14">
          <mxGeometry relative="1" as="geometry">
            <mxPoint x="540" y="380" as="targetPoint" />
          </mxGeometry>
        </mxCell>
        <mxCell id="xkYylE5DT08cLDUG56dl-14" value="&lt;div style=&quot;font-size: 14px; line-height: 19px;&quot;&gt;&lt;span style=&quot;background-color: rgb(255, 255, 255);&quot;&gt;Node = makeTree(Node)&lt;/span&gt;&lt;/div&gt;" style="rounded=0;whiteSpace=wrap;html=1;" vertex="1" parent="1">
          <mxGeometry x="264" y="370" width="160" height="20" as="geometry" />
        </mxCell>
        <mxCell id="xkYylE5DT08cLDUG56dl-23" style="edgeStyle=orthogonalEdgeStyle;rounded=0;orthogonalLoop=1;jettySize=auto;html=1;exitX=0.5;exitY=1;exitDx=0;exitDy=0;entryX=0.291;entryY=-0.033;entryDx=0;entryDy=0;entryPerimeter=0;" edge="1" parent="1" source="xkYylE5DT08cLDUG56dl-16" target="xkYylE5DT08cLDUG56dl-17">
          <mxGeometry relative="1" as="geometry" />
        </mxCell>
        <mxCell id="xkYylE5DT08cLDUG56dl-16" value="number" style="shape=parallelogram;perimeter=parallelogramPerimeter;whiteSpace=wrap;html=1;fixedSize=1;" vertex="1" parent="1">
          <mxGeometry x="281" y="400" width="86" height="20" as="geometry" />
        </mxCell>
        <mxCell id="xkYylE5DT08cLDUG56dl-53" style="edgeStyle=orthogonalEdgeStyle;rounded=0;orthogonalLoop=1;jettySize=auto;html=1;" edge="1" parent="1" source="xkYylE5DT08cLDUG56dl-17">
          <mxGeometry relative="1" as="geometry">
            <mxPoint x="540" y="450" as="targetPoint" />
          </mxGeometry>
        </mxCell>
        <mxCell id="xkYylE5DT08cLDUG56dl-17" value="&lt;div style=&quot;font-family: Consolas, &amp;quot;Courier New&amp;quot;, monospace; font-size: 14px; line-height: 19px;&quot;&gt;&lt;span style=&quot;background-color: rgb(255, 255, 255);&quot;&gt;Node = deleteNode(Node, number)&lt;/span&gt;&lt;/div&gt;" style="rounded=0;whiteSpace=wrap;html=1;" vertex="1" parent="1">
          <mxGeometry x="250" y="440" width="250" height="20" as="geometry" />
        </mxCell>
        <mxCell id="xkYylE5DT08cLDUG56dl-30" style="edgeStyle=orthogonalEdgeStyle;rounded=0;orthogonalLoop=1;jettySize=auto;html=1;entryX=0.281;entryY=0;entryDx=0;entryDy=0;entryPerimeter=0;" edge="1" parent="1" source="xkYylE5DT08cLDUG56dl-24" target="xkYylE5DT08cLDUG56dl-25">
          <mxGeometry relative="1" as="geometry" />
        </mxCell>
        <mxCell id="xkYylE5DT08cLDUG56dl-24" value="number1" style="shape=parallelogram;perimeter=parallelogramPerimeter;whiteSpace=wrap;html=1;fixedSize=1;" vertex="1" parent="1">
          <mxGeometry x="280" y="470" width="86" height="20" as="geometry" />
        </mxCell>
        <mxCell id="xkYylE5DT08cLDUG56dl-54" style="edgeStyle=orthogonalEdgeStyle;rounded=0;orthogonalLoop=1;jettySize=auto;html=1;" edge="1" parent="1" source="xkYylE5DT08cLDUG56dl-25">
          <mxGeometry relative="1" as="geometry">
            <mxPoint x="540" y="520" as="targetPoint" />
          </mxGeometry>
        </mxCell>
        <mxCell id="xkYylE5DT08cLDUG56dl-25" value="&lt;div style=&quot;font-size: 14px; line-height: 19px;&quot;&gt;&lt;div style=&quot;line-height: 19px;&quot;&gt;&lt;span style=&quot;background-color: rgb(255, 255, 255);&quot;&gt;Node = changeNumbers(Node, number1)&lt;/span&gt;&lt;/div&gt;&lt;/div&gt;" style="rounded=0;whiteSpace=wrap;html=1;" vertex="1" parent="1">
          <mxGeometry x="250" y="510" width="260" height="20" as="geometry" />
        </mxCell>
        <mxCell id="xkYylE5DT08cLDUG56dl-35" style="edgeStyle=orthogonalEdgeStyle;rounded=0;orthogonalLoop=1;jettySize=auto;html=1;" edge="1" parent="1" source="xkYylE5DT08cLDUG56dl-32" target="xkYylE5DT08cLDUG56dl-34">
          <mxGeometry relative="1" as="geometry" />
        </mxCell>
        <mxCell id="xkYylE5DT08cLDUG56dl-32" value="letter" style="shape=parallelogram;perimeter=parallelogramPerimeter;whiteSpace=wrap;html=1;fixedSize=1;" vertex="1" parent="1">
          <mxGeometry x="280" y="550" width="80" height="20" as="geometry" />
        </mxCell>
        <mxCell id="xkYylE5DT08cLDUG56dl-38" value="TRUE" style="edgeStyle=orthogonalEdgeStyle;rounded=0;orthogonalLoop=1;jettySize=auto;html=1;entryX=0.5;entryY=0;entryDx=0;entryDy=0;" edge="1" parent="1" source="xkYylE5DT08cLDUG56dl-34" target="xkYylE5DT08cLDUG56dl-37">
          <mxGeometry relative="1" as="geometry" />
        </mxCell>
        <mxCell id="xkYylE5DT08cLDUG56dl-55" value="False" style="edgeStyle=orthogonalEdgeStyle;rounded=0;orthogonalLoop=1;jettySize=auto;html=1;" edge="1" parent="1" source="xkYylE5DT08cLDUG56dl-34">
          <mxGeometry relative="1" as="geometry">
            <mxPoint x="540" y="630" as="targetPoint" />
          </mxGeometry>
        </mxCell>
        <mxCell id="xkYylE5DT08cLDUG56dl-34" value="&lt;div style=&quot;font-size: 14px; line-height: 19px;&quot;&gt;&lt;span style=&quot;background-color: rgb(255, 255, 255);&quot;&gt;!printTrainsByLetter(Node, letter)&lt;/span&gt;&lt;/div&gt;" style="rhombus;whiteSpace=wrap;html=1;" vertex="1" parent="1">
          <mxGeometry x="277.5" y="590" width="85" height="80" as="geometry" />
        </mxCell>
        <mxCell id="xkYylE5DT08cLDUG56dl-56" style="edgeStyle=orthogonalEdgeStyle;rounded=0;orthogonalLoop=1;jettySize=auto;html=1;" edge="1" parent="1" source="xkYylE5DT08cLDUG56dl-37">
          <mxGeometry relative="1" as="geometry">
            <mxPoint x="540" y="715" as="targetPoint" />
          </mxGeometry>
        </mxCell>
        <mxCell id="xkYylE5DT08cLDUG56dl-37" value="&quot;No trains&quot;" style="shape=parallelogram;perimeter=parallelogramPerimeter;whiteSpace=wrap;html=1;fixedSize=1;" vertex="1" parent="1">
          <mxGeometry x="280" y="700" width="80" height="30" as="geometry" />
        </mxCell>
        <mxCell id="xkYylE5DT08cLDUG56dl-57" style="edgeStyle=orthogonalEdgeStyle;rounded=0;orthogonalLoop=1;jettySize=auto;html=1;" edge="1" parent="1" source="xkYylE5DT08cLDUG56dl-39">
          <mxGeometry relative="1" as="geometry">
            <mxPoint x="540" y="770" as="targetPoint" />
          </mxGeometry>
        </mxCell>
        <mxCell id="xkYylE5DT08cLDUG56dl-39" value="&lt;div style=&quot;font-size: 14px; line-height: 19px;&quot;&gt;&lt;span style=&quot;background-color: rgb(255, 255, 255);&quot;&gt;Node = loadData(Node)&lt;/span&gt;&lt;/div&gt;" style="rounded=0;whiteSpace=wrap;html=1;" vertex="1" parent="1">
          <mxGeometry x="264" y="760" width="156" height="20" as="geometry" />
        </mxCell>
        <mxCell id="xkYylE5DT08cLDUG56dl-58" style="edgeStyle=orthogonalEdgeStyle;rounded=0;orthogonalLoop=1;jettySize=auto;html=1;" edge="1" parent="1" source="xkYylE5DT08cLDUG56dl-41">
          <mxGeometry relative="1" as="geometry">
            <mxPoint x="540" y="810" as="targetPoint" />
          </mxGeometry>
        </mxCell>
        <mxCell id="xkYylE5DT08cLDUG56dl-41" value="&lt;div style=&quot;font-size: 14px; line-height: 19px;&quot;&gt;&lt;span style=&quot;background-color: rgb(255, 255, 255);&quot;&gt;saveTree(Node)&lt;/span&gt;&lt;/div&gt;" style="rounded=0;whiteSpace=wrap;html=1;" vertex="1" parent="1">
          <mxGeometry x="264" y="800" width="106" height="20" as="geometry" />
        </mxCell>
        <mxCell id="xkYylE5DT08cLDUG56dl-48" style="edgeStyle=orthogonalEdgeStyle;rounded=0;orthogonalLoop=1;jettySize=auto;html=1;entryX=0.5;entryY=1;entryDx=0;entryDy=0;" edge="1" parent="1" source="xkYylE5DT08cLDUG56dl-43" target="xkYylE5DT08cLDUG56dl-2">
          <mxGeometry relative="1" as="geometry">
            <Array as="points">
              <mxPoint x="540" y="890" />
              <mxPoint x="540" y="220" />
              <mxPoint x="414" y="220" />
            </Array>
          </mxGeometry>
        </mxCell>
        <mxCell id="xkYylE5DT08cLDUG56dl-43" value="&lt;div style=&quot;font-size: 14px; line-height: 19px;&quot;&gt;&lt;span style=&quot;background-color: rgb(255, 255, 255);&quot;&gt;isActive = 0&lt;/span&gt;&lt;/div&gt;" style="rounded=0;whiteSpace=wrap;html=1;" vertex="1" parent="1">
          <mxGeometry x="266.5" y="880" width="96" height="20" as="geometry" />
        </mxCell>
        <mxCell id="xkYylE5DT08cLDUG56dl-46" style="edgeStyle=orthogonalEdgeStyle;rounded=0;orthogonalLoop=1;jettySize=auto;html=1;entryX=0.5;entryY=0;entryDx=0;entryDy=0;" edge="1" parent="1" source="xkYylE5DT08cLDUG56dl-45" target="xkYylE5DT08cLDUG56dl-43">
          <mxGeometry relative="1" as="geometry" />
        </mxCell>
        <mxCell id="xkYylE5DT08cLDUG56dl-45" value="freeTree(Node)" style="rounded=0;whiteSpace=wrap;html=1;" vertex="1" parent="1">
          <mxGeometry x="263.5" y="840" width="102" height="20" as="geometry" />
        </mxCell>
        <mxCell id="xkYylE5DT08cLDUG56dl-59" value="Конец" style="ellipse;whiteSpace=wrap;html=1;" vertex="1" parent="1">
          <mxGeometry x="530" y="110" width="120" height="80" as="geometry" />
        </mxCell>
      </root>
    </mxGraphModel>
  </diagram>
</mxfile>
